<mxfile host="65bd71144e">
    <diagram id="068hfvuS6B8hiTalVcpt" name="Exercise 1">
        <mxGraphModel dx="584" dy="385" grid="1" gridSize="10" guides="1" tooltips="1" connect="1" arrows="1" fold="1" page="1" pageScale="1" pageWidth="827" pageHeight="1169" math="0" shadow="0">
            <root>
                <mxCell id="0"/>
                <mxCell id="1" parent="0"/>
                <mxCell id="4" value="" style="edgeStyle=none;html=1;" edge="1" parent="1" source="2" target="3">
                    <mxGeometry relative="1" as="geometry"/>
                </mxCell>
                <mxCell id="2" value="Start" style="ellipse;whiteSpace=wrap;html=1;" vertex="1" parent="1">
                    <mxGeometry x="260" y="20" width="120" height="50" as="geometry"/>
                </mxCell>
                <mxCell id="6" value="" style="edgeStyle=none;html=1;" edge="1" parent="1" source="3" target="5">
                    <mxGeometry relative="1" as="geometry"/>
                </mxCell>
                <mxCell id="3" value="x, y" style="shape=parallelogram;perimeter=parallelogramPerimeter;whiteSpace=wrap;html=1;fixedSize=1;" vertex="1" parent="1">
                    <mxGeometry x="260" y="110" width="120" height="60" as="geometry"/>
                </mxCell>
                <mxCell id="8" value="" style="edgeStyle=none;html=1;" edge="1" parent="1" source="5" target="7">
                    <mxGeometry relative="1" as="geometry"/>
                </mxCell>
                <mxCell id="10" value="" style="edgeStyle=none;html=1;" edge="1" parent="1" source="5" target="9">
                    <mxGeometry relative="1" as="geometry"/>
                </mxCell>
                <mxCell id="5" value="x &amp;gt; 0&lt;br&gt;y &amp;gt; 0" style="rhombus;whiteSpace=wrap;html=1;" vertex="1" parent="1">
                    <mxGeometry x="280" y="220" width="80" height="80" as="geometry"/>
                </mxCell>
                <mxCell id="7" value="Print &quot;Первая четверть&quot;" style="shape=document;whiteSpace=wrap;html=1;boundedLbl=1;" vertex="1" parent="1">
                    <mxGeometry x="420" y="220" width="120" height="80" as="geometry"/>
                </mxCell>
                <mxCell id="12" value="" style="edgeStyle=none;html=1;" edge="1" parent="1" source="9" target="11">
                    <mxGeometry relative="1" as="geometry"/>
                </mxCell>
                <mxCell id="14" value="" style="edgeStyle=none;html=1;" edge="1" parent="1" source="9" target="13">
                    <mxGeometry relative="1" as="geometry"/>
                </mxCell>
                <mxCell id="9" value="x &amp;lt; 0&lt;br&gt;y &amp;gt; 0" style="rhombus;whiteSpace=wrap;html=1;" vertex="1" parent="1">
                    <mxGeometry x="280" y="340" width="80" height="80" as="geometry"/>
                </mxCell>
                <mxCell id="26" value="" style="edgeStyle=none;html=1;exitX=1;exitY=0.5;exitDx=0;exitDy=0;" edge="1" parent="1" source="11" target="25">
                    <mxGeometry relative="1" as="geometry">
                        <Array as="points">
                            <mxPoint x="600" y="380"/>
                            <mxPoint x="600" y="950"/>
                        </Array>
                    </mxGeometry>
                </mxCell>
                <mxCell id="11" value="&lt;span&gt;Print &quot;Вторая четверть&quot;&lt;/span&gt;" style="shape=document;whiteSpace=wrap;html=1;boundedLbl=1;" vertex="1" parent="1">
                    <mxGeometry x="420" y="340" width="120" height="80" as="geometry"/>
                </mxCell>
                <mxCell id="16" value="" style="edgeStyle=none;html=1;" edge="1" parent="1" source="13" target="15">
                    <mxGeometry relative="1" as="geometry"/>
                </mxCell>
                <mxCell id="18" value="" style="edgeStyle=none;html=1;" edge="1" parent="1" source="13" target="17">
                    <mxGeometry relative="1" as="geometry"/>
                </mxCell>
                <mxCell id="13" value="x &amp;lt; 0&lt;br&gt;y &amp;lt; 0" style="rhombus;whiteSpace=wrap;html=1;" vertex="1" parent="1">
                    <mxGeometry x="280" y="470" width="80" height="80" as="geometry"/>
                </mxCell>
                <mxCell id="15" value="&lt;span&gt;Print &quot;Третья четверть&quot;&lt;/span&gt;" style="shape=document;whiteSpace=wrap;html=1;boundedLbl=1;" vertex="1" parent="1">
                    <mxGeometry x="420" y="470" width="120" height="80" as="geometry"/>
                </mxCell>
                <mxCell id="20" value="" style="edgeStyle=none;html=1;" edge="1" parent="1" source="17" target="19">
                    <mxGeometry relative="1" as="geometry"/>
                </mxCell>
                <mxCell id="22" value="" style="edgeStyle=none;html=1;" edge="1" parent="1" source="17" target="21">
                    <mxGeometry relative="1" as="geometry"/>
                </mxCell>
                <mxCell id="17" value="x &amp;gt; 0&lt;br&gt;y &amp;lt; 0" style="rhombus;whiteSpace=wrap;html=1;" vertex="1" parent="1">
                    <mxGeometry x="280" y="600" width="80" height="80" as="geometry"/>
                </mxCell>
                <mxCell id="19" value="&lt;span&gt;Print &quot;Четвертая четверть&quot;&lt;/span&gt;" style="shape=document;whiteSpace=wrap;html=1;boundedLbl=1;" vertex="1" parent="1">
                    <mxGeometry x="420" y="600" width="120" height="80" as="geometry"/>
                </mxCell>
                <mxCell id="24" value="" style="edgeStyle=none;html=1;" edge="1" parent="1" source="21" target="23">
                    <mxGeometry relative="1" as="geometry"/>
                </mxCell>
                <mxCell id="21" value="x == 0 || &lt;br&gt;y == 0" style="rhombus;whiteSpace=wrap;html=1;" vertex="1" parent="1">
                    <mxGeometry x="280" y="730" width="80" height="80" as="geometry"/>
                </mxCell>
                <mxCell id="23" value="&lt;span&gt;Print &quot;x ≠ 0 и y ≠ 0&quot;&lt;/span&gt;" style="shape=document;whiteSpace=wrap;html=1;boundedLbl=1;" vertex="1" parent="1">
                    <mxGeometry x="420" y="730" width="120" height="80" as="geometry"/>
                </mxCell>
                <mxCell id="25" value="End" style="ellipse;whiteSpace=wrap;html=1;" vertex="1" parent="1">
                    <mxGeometry x="260" y="920" width="120" height="60" as="geometry"/>
                </mxCell>
                <mxCell id="27" value="" style="endArrow=classic;html=1;exitX=1;exitY=0.5;exitDx=0;exitDy=0;entryX=1;entryY=0.5;entryDx=0;entryDy=0;" edge="1" parent="1" source="7" target="25">
                    <mxGeometry width="50" height="50" relative="1" as="geometry">
                        <mxPoint x="380" y="410" as="sourcePoint"/>
                        <mxPoint x="600" y="810" as="targetPoint"/>
                        <Array as="points">
                            <mxPoint x="600" y="260"/>
                            <mxPoint x="600" y="950"/>
                        </Array>
                    </mxGeometry>
                </mxCell>
                <mxCell id="28" value="" style="endArrow=classic;html=1;exitX=1;exitY=0.5;exitDx=0;exitDy=0;entryX=1;entryY=0.5;entryDx=0;entryDy=0;" edge="1" parent="1" target="25">
                    <mxGeometry width="50" height="50" relative="1" as="geometry">
                        <mxPoint x="540" y="500" as="sourcePoint"/>
                        <mxPoint x="440" y="950" as="targetPoint"/>
                        <Array as="points">
                            <mxPoint x="600" y="500"/>
                            <mxPoint x="600" y="950"/>
                        </Array>
                    </mxGeometry>
                </mxCell>
                <mxCell id="30" value="" style="endArrow=classic;html=1;exitX=1;exitY=0.5;exitDx=0;exitDy=0;entryX=1;entryY=0.5;entryDx=0;entryDy=0;" edge="1" parent="1" target="25">
                    <mxGeometry width="50" height="50" relative="1" as="geometry">
                        <mxPoint x="540" y="640" as="sourcePoint"/>
                        <mxPoint x="430" y="1090" as="targetPoint"/>
                        <Array as="points">
                            <mxPoint x="600" y="640"/>
                            <mxPoint x="600" y="950"/>
                        </Array>
                    </mxGeometry>
                </mxCell>
                <mxCell id="31" value="" style="endArrow=classic;html=1;exitX=1;exitY=0.5;exitDx=0;exitDy=0;entryX=1;entryY=0.5;entryDx=0;entryDy=0;" edge="1" parent="1" target="25">
                    <mxGeometry width="50" height="50" relative="1" as="geometry">
                        <mxPoint x="540" y="760" as="sourcePoint"/>
                        <mxPoint x="440" y="1070" as="targetPoint"/>
                        <Array as="points">
                            <mxPoint x="600" y="760"/>
                            <mxPoint x="600" y="950"/>
                        </Array>
                    </mxGeometry>
                </mxCell>
                <mxCell id="37" value="&lt;font style=&quot;font-size: 18px&quot;&gt;&lt;b&gt;&lt;i&gt;Exercise 2&lt;/i&gt;&lt;/b&gt;&lt;/font&gt;" style="text;html=1;strokeColor=none;fillColor=none;align=center;verticalAlign=middle;whiteSpace=wrap;rounded=0;" vertex="1" parent="1">
                    <mxGeometry x="470" y="10" width="200" height="50" as="geometry"/>
                </mxCell>
            </root>
        </mxGraphModel>
    </diagram>
    <diagram id="CphPDcIQsvcbv5QiBNmE" name="Exercise 2">
        <mxGraphModel dx="642" dy="424" grid="1" gridSize="10" guides="1" tooltips="1" connect="1" arrows="1" fold="1" page="1" pageScale="1" pageWidth="827" pageHeight="1169" math="0" shadow="0">
            <root>
                <mxCell id="QG7gdv3YMY9pHLYUUvZL-0"/>
                <mxCell id="QG7gdv3YMY9pHLYUUvZL-1" parent="QG7gdv3YMY9pHLYUUvZL-0"/>
                <mxCell id="QG7gdv3YMY9pHLYUUvZL-4" value="" style="edgeStyle=none;html=1;fontSize=14;" edge="1" parent="QG7gdv3YMY9pHLYUUvZL-1" source="QG7gdv3YMY9pHLYUUvZL-2" target="QG7gdv3YMY9pHLYUUvZL-3">
                    <mxGeometry relative="1" as="geometry"/>
                </mxCell>
                <mxCell id="QG7gdv3YMY9pHLYUUvZL-2" value="&lt;font size=&quot;3&quot;&gt;Start&lt;/font&gt;" style="ellipse;whiteSpace=wrap;html=1;fontSize=18;" vertex="1" parent="QG7gdv3YMY9pHLYUUvZL-1">
                    <mxGeometry x="220" y="10" width="120" height="50" as="geometry"/>
                </mxCell>
                <mxCell id="QG7gdv3YMY9pHLYUUvZL-6" value="" style="edgeStyle=none;html=1;fontSize=14;" edge="1" parent="QG7gdv3YMY9pHLYUUvZL-1" source="QG7gdv3YMY9pHLYUUvZL-3" target="QG7gdv3YMY9pHLYUUvZL-5">
                    <mxGeometry relative="1" as="geometry"/>
                </mxCell>
                <mxCell id="QG7gdv3YMY9pHLYUUvZL-3" value="&lt;font style=&quot;font-size: 14px&quot;&gt;Ax, Ay, Bx, By&lt;/font&gt;" style="shape=parallelogram;perimeter=parallelogramPerimeter;whiteSpace=wrap;html=1;fixedSize=1;fontSize=18;" vertex="1" parent="QG7gdv3YMY9pHLYUUvZL-1">
                    <mxGeometry x="220" y="110" width="120" height="60" as="geometry"/>
                </mxCell>
                <mxCell id="QG7gdv3YMY9pHLYUUvZL-8" value="" style="edgeStyle=none;html=1;fontSize=14;" edge="1" parent="QG7gdv3YMY9pHLYUUvZL-1" source="QG7gdv3YMY9pHLYUUvZL-5" target="QG7gdv3YMY9pHLYUUvZL-7">
                    <mxGeometry relative="1" as="geometry"/>
                </mxCell>
                <mxCell id="QG7gdv3YMY9pHLYUUvZL-5" value="&lt;font style=&quot;font-size: 14px&quot;&gt;D = Sqrt ((Ax - Bx)^2 + &lt;br&gt;(Ay - By)^2)&amp;nbsp;&lt;/font&gt;" style="whiteSpace=wrap;html=1;fontSize=18;" vertex="1" parent="QG7gdv3YMY9pHLYUUvZL-1">
                    <mxGeometry x="195" y="210" width="170" height="100" as="geometry"/>
                </mxCell>
                <mxCell id="QG7gdv3YMY9pHLYUUvZL-10" value="" style="edgeStyle=none;html=1;fontSize=14;" edge="1" parent="QG7gdv3YMY9pHLYUUvZL-1" source="QG7gdv3YMY9pHLYUUvZL-7" target="QG7gdv3YMY9pHLYUUvZL-9">
                    <mxGeometry relative="1" as="geometry"/>
                </mxCell>
                <mxCell id="QG7gdv3YMY9pHLYUUvZL-7" value="Print D" style="shape=document;whiteSpace=wrap;html=1;boundedLbl=1;fontSize=18;" vertex="1" parent="QG7gdv3YMY9pHLYUUvZL-1">
                    <mxGeometry x="220" y="370" width="120" height="80" as="geometry"/>
                </mxCell>
                <mxCell id="QG7gdv3YMY9pHLYUUvZL-9" value="End" style="ellipse;whiteSpace=wrap;html=1;fontSize=18;" vertex="1" parent="QG7gdv3YMY9pHLYUUvZL-1">
                    <mxGeometry x="220" y="510" width="120" height="60" as="geometry"/>
                </mxCell>
                <mxCell id="TWlbXO4fJcsiHgDHD_qg-0" value="&lt;font style=&quot;font-size: 18px&quot;&gt;&lt;b&gt;&lt;i&gt;Exercise 2&lt;/i&gt;&lt;/b&gt;&lt;/font&gt;" style="text;html=1;strokeColor=none;fillColor=none;align=center;verticalAlign=middle;whiteSpace=wrap;rounded=0;" vertex="1" parent="QG7gdv3YMY9pHLYUUvZL-1">
                    <mxGeometry x="440" y="10" width="200" height="50" as="geometry"/>
                </mxCell>
            </root>
        </mxGraphModel>
    </diagram>
    <diagram id="xQId98Cml1MS6cy3nt2u" name="Exercise 3">
        <mxGraphModel dx="347" dy="229" grid="1" gridSize="10" guides="1" tooltips="1" connect="1" arrows="1" fold="1" page="1" pageScale="1" pageWidth="827" pageHeight="1169" math="0" shadow="0">
            <root>
                <mxCell id="k_n2-Igll4LDZmqMua2y-0"/>
                <mxCell id="k_n2-Igll4LDZmqMua2y-1" parent="k_n2-Igll4LDZmqMua2y-0"/>
                <mxCell id="k_n2-Igll4LDZmqMua2y-4" value="" style="edgeStyle=none;html=1;fontSize=14;" edge="1" parent="k_n2-Igll4LDZmqMua2y-1" source="k_n2-Igll4LDZmqMua2y-2" target="k_n2-Igll4LDZmqMua2y-3">
                    <mxGeometry relative="1" as="geometry"/>
                </mxCell>
                <mxCell id="k_n2-Igll4LDZmqMua2y-2" value="Start" style="ellipse;whiteSpace=wrap;html=1;fontSize=14;" vertex="1" parent="k_n2-Igll4LDZmqMua2y-1">
                    <mxGeometry x="250" y="20" width="120" height="50" as="geometry"/>
                </mxCell>
                <mxCell id="k_n2-Igll4LDZmqMua2y-6" value="" style="edgeStyle=none;html=1;fontSize=14;" edge="1" parent="k_n2-Igll4LDZmqMua2y-1" source="k_n2-Igll4LDZmqMua2y-3" target="k_n2-Igll4LDZmqMua2y-5">
                    <mxGeometry relative="1" as="geometry"/>
                </mxCell>
                <mxCell id="k_n2-Igll4LDZmqMua2y-3" value="N" style="shape=parallelogram;perimeter=parallelogramPerimeter;whiteSpace=wrap;html=1;fixedSize=1;fontSize=14;" vertex="1" parent="k_n2-Igll4LDZmqMua2y-1">
                    <mxGeometry x="250" y="110" width="120" height="60" as="geometry"/>
                </mxCell>
                <mxCell id="k_n2-Igll4LDZmqMua2y-8" value="" style="edgeStyle=none;html=1;fontSize=14;" edge="1" parent="k_n2-Igll4LDZmqMua2y-1" source="k_n2-Igll4LDZmqMua2y-5" target="k_n2-Igll4LDZmqMua2y-7">
                    <mxGeometry relative="1" as="geometry"/>
                </mxCell>
                <mxCell id="k_n2-Igll4LDZmqMua2y-5" value="count&amp;nbsp; = 0&lt;br&gt;i = 0" style="whiteSpace=wrap;html=1;fontSize=14;" vertex="1" parent="k_n2-Igll4LDZmqMua2y-1">
                    <mxGeometry x="250" y="200" width="120" height="60" as="geometry"/>
                </mxCell>
                <mxCell id="k_n2-Igll4LDZmqMua2y-10" value="" style="edgeStyle=none;html=1;fontSize=14;" edge="1" parent="k_n2-Igll4LDZmqMua2y-1" source="k_n2-Igll4LDZmqMua2y-7" target="k_n2-Igll4LDZmqMua2y-9">
                    <mxGeometry relative="1" as="geometry"/>
                </mxCell>
                <mxCell id="k_n2-Igll4LDZmqMua2y-15" value="" style="edgeStyle=none;html=1;fontSize=14;" edge="1" parent="k_n2-Igll4LDZmqMua2y-1" source="k_n2-Igll4LDZmqMua2y-7" target="k_n2-Igll4LDZmqMua2y-14">
                    <mxGeometry relative="1" as="geometry">
                        <Array as="points">
                            <mxPoint x="430" y="340"/>
                            <mxPoint x="430" y="740"/>
                        </Array>
                    </mxGeometry>
                </mxCell>
                <mxCell id="k_n2-Igll4LDZmqMua2y-7" value="i &amp;lt; N" style="rhombus;whiteSpace=wrap;html=1;fontSize=14;" vertex="1" parent="k_n2-Igll4LDZmqMua2y-1">
                    <mxGeometry x="270" y="300" width="80" height="80" as="geometry"/>
                </mxCell>
                <mxCell id="k_n2-Igll4LDZmqMua2y-12" value="" style="edgeStyle=none;html=1;fontSize=14;" edge="1" parent="k_n2-Igll4LDZmqMua2y-1" source="k_n2-Igll4LDZmqMua2y-9" target="k_n2-Igll4LDZmqMua2y-11">
                    <mxGeometry relative="1" as="geometry"/>
                </mxCell>
                <mxCell id="k_n2-Igll4LDZmqMua2y-9" value="i = i + 1&lt;br&gt;count = i * i" style="whiteSpace=wrap;html=1;fontSize=14;" vertex="1" parent="k_n2-Igll4LDZmqMua2y-1">
                    <mxGeometry x="250" y="420" width="120" height="60" as="geometry"/>
                </mxCell>
                <mxCell id="k_n2-Igll4LDZmqMua2y-11" value="Count" style="shape=document;whiteSpace=wrap;html=1;boundedLbl=1;fontSize=14;" vertex="1" parent="k_n2-Igll4LDZmqMua2y-1">
                    <mxGeometry x="250" y="520" width="120" height="80" as="geometry"/>
                </mxCell>
                <mxCell id="k_n2-Igll4LDZmqMua2y-13" value="" style="endArrow=classic;html=1;fontSize=14;exitX=0.508;exitY=0.875;exitDx=0;exitDy=0;exitPerimeter=0;entryX=0;entryY=0.5;entryDx=0;entryDy=0;" edge="1" parent="k_n2-Igll4LDZmqMua2y-1" source="k_n2-Igll4LDZmqMua2y-11" target="k_n2-Igll4LDZmqMua2y-7">
                    <mxGeometry width="50" height="50" relative="1" as="geometry">
                        <mxPoint x="320" y="660" as="sourcePoint"/>
                        <mxPoint x="240" y="330" as="targetPoint"/>
                        <Array as="points">
                            <mxPoint x="311" y="630"/>
                            <mxPoint x="140" y="630"/>
                            <mxPoint x="140" y="340"/>
                        </Array>
                    </mxGeometry>
                </mxCell>
                <mxCell id="k_n2-Igll4LDZmqMua2y-14" value="End" style="ellipse;whiteSpace=wrap;html=1;fontSize=14;" vertex="1" parent="k_n2-Igll4LDZmqMua2y-1">
                    <mxGeometry x="250" y="710" width="120" height="60" as="geometry"/>
                </mxCell>
                <mxCell id="64dI08ms7WAYqGwBxSaz-0" value="&lt;font style=&quot;font-size: 18px&quot;&gt;&lt;b&gt;&lt;i&gt;Exercise 3&lt;/i&gt;&lt;/b&gt;&lt;/font&gt;" style="text;html=1;strokeColor=none;fillColor=none;align=center;verticalAlign=middle;whiteSpace=wrap;rounded=0;" vertex="1" parent="k_n2-Igll4LDZmqMua2y-1">
                    <mxGeometry x="450" y="10" width="200" height="50" as="geometry"/>
                </mxCell>
            </root>
        </mxGraphModel>
    </diagram>
    <diagram id="ZkhYbzFUh_pp79rYhpGy" name="Exercise 4">
        <mxGraphModel dx="642" dy="424" grid="1" gridSize="10" guides="1" tooltips="1" connect="1" arrows="1" fold="1" page="1" pageScale="1" pageWidth="827" pageHeight="1169" math="0" shadow="0">
            <root>
                <mxCell id="ZiXlyBg2tB-xtiRI0G9W-0"/>
                <mxCell id="ZiXlyBg2tB-xtiRI0G9W-1" parent="ZiXlyBg2tB-xtiRI0G9W-0"/>
                <mxCell id="ZiXlyBg2tB-xtiRI0G9W-4" value="" style="edgeStyle=none;html=1;fontSize=14;" edge="1" parent="ZiXlyBg2tB-xtiRI0G9W-1" source="ZiXlyBg2tB-xtiRI0G9W-2" target="ZiXlyBg2tB-xtiRI0G9W-3">
                    <mxGeometry relative="1" as="geometry"/>
                </mxCell>
                <mxCell id="ZiXlyBg2tB-xtiRI0G9W-2" value="Start" style="ellipse;whiteSpace=wrap;html=1;fontSize=14;" vertex="1" parent="ZiXlyBg2tB-xtiRI0G9W-1">
                    <mxGeometry x="240" y="10" width="120" height="50" as="geometry"/>
                </mxCell>
                <mxCell id="ZiXlyBg2tB-xtiRI0G9W-6" value="" style="edgeStyle=none;html=1;fontSize=14;" edge="1" parent="ZiXlyBg2tB-xtiRI0G9W-1" source="ZiXlyBg2tB-xtiRI0G9W-3" target="ZiXlyBg2tB-xtiRI0G9W-5">
                    <mxGeometry relative="1" as="geometry"/>
                </mxCell>
                <mxCell id="ZiXlyBg2tB-xtiRI0G9W-3" value="Number" style="shape=parallelogram;perimeter=parallelogramPerimeter;whiteSpace=wrap;html=1;fixedSize=1;fontSize=14;" vertex="1" parent="ZiXlyBg2tB-xtiRI0G9W-1">
                    <mxGeometry x="240" y="100" width="120" height="60" as="geometry"/>
                </mxCell>
                <mxCell id="ZiXlyBg2tB-xtiRI0G9W-8" value="" style="edgeStyle=none;html=1;fontSize=14;" edge="1" parent="ZiXlyBg2tB-xtiRI0G9W-1" source="ZiXlyBg2tB-xtiRI0G9W-5" target="ZiXlyBg2tB-xtiRI0G9W-7">
                    <mxGeometry relative="1" as="geometry"/>
                </mxCell>
                <mxCell id="ZiXlyBg2tB-xtiRI0G9W-5" value="NumberA&lt;br&gt;a = 0" style="whiteSpace=wrap;html=1;fontSize=14;" vertex="1" parent="ZiXlyBg2tB-xtiRI0G9W-1">
                    <mxGeometry x="200" y="200" width="200" height="90" as="geometry"/>
                </mxCell>
                <mxCell id="ZiXlyBg2tB-xtiRI0G9W-10" value="" style="edgeStyle=none;html=1;fontSize=14;" edge="1" parent="ZiXlyBg2tB-xtiRI0G9W-1" source="ZiXlyBg2tB-xtiRI0G9W-7" target="ZiXlyBg2tB-xtiRI0G9W-9">
                    <mxGeometry relative="1" as="geometry"/>
                </mxCell>
                <mxCell id="ZiXlyBg2tB-xtiRI0G9W-7" value="NumberA &amp;gt; 0" style="rhombus;whiteSpace=wrap;html=1;fontSize=14;" vertex="1" parent="ZiXlyBg2tB-xtiRI0G9W-1">
                    <mxGeometry x="235" y="340" width="130" height="90" as="geometry"/>
                </mxCell>
                <mxCell id="ZiXlyBg2tB-xtiRI0G9W-12" value="" style="edgeStyle=none;html=1;fontSize=14;" edge="1" parent="ZiXlyBg2tB-xtiRI0G9W-1" source="ZiXlyBg2tB-xtiRI0G9W-9" target="ZiXlyBg2tB-xtiRI0G9W-11">
                    <mxGeometry relative="1" as="geometry"/>
                </mxCell>
                <mxCell id="ZiXlyBg2tB-xtiRI0G9W-9" value="a = a * 10 + NumberA % 10&lt;br&gt;Number A = Number A / 10" style="whiteSpace=wrap;html=1;fontSize=14;" vertex="1" parent="ZiXlyBg2tB-xtiRI0G9W-1">
                    <mxGeometry x="200" y="480" width="200" height="90" as="geometry"/>
                </mxCell>
                <mxCell id="ZiXlyBg2tB-xtiRI0G9W-11" value="Print a" style="shape=document;whiteSpace=wrap;html=1;boundedLbl=1;fontSize=14;" vertex="1" parent="ZiXlyBg2tB-xtiRI0G9W-1">
                    <mxGeometry x="240" y="620" width="120" height="80" as="geometry"/>
                </mxCell>
                <mxCell id="ZiXlyBg2tB-xtiRI0G9W-13" value="" style="endArrow=classic;html=1;fontSize=14;exitX=0.533;exitY=0.819;exitDx=0;exitDy=0;exitPerimeter=0;entryX=0;entryY=0.5;entryDx=0;entryDy=0;" edge="1" parent="ZiXlyBg2tB-xtiRI0G9W-1" source="ZiXlyBg2tB-xtiRI0G9W-11" target="ZiXlyBg2tB-xtiRI0G9W-7">
                    <mxGeometry width="50" height="50" relative="1" as="geometry">
                        <mxPoint x="310" y="670" as="sourcePoint"/>
                        <mxPoint x="190" y="380" as="targetPoint"/>
                        <Array as="points">
                            <mxPoint x="304" y="740"/>
                            <mxPoint x="120" y="740"/>
                            <mxPoint x="120" y="385"/>
                        </Array>
                    </mxGeometry>
                </mxCell>
                <mxCell id="ZiXlyBg2tB-xtiRI0G9W-14" value="" style="endArrow=classic;html=1;fontSize=14;exitX=1;exitY=0.5;exitDx=0;exitDy=0;" edge="1" parent="ZiXlyBg2tB-xtiRI0G9W-1" source="ZiXlyBg2tB-xtiRI0G9W-7">
                    <mxGeometry width="50" height="50" relative="1" as="geometry">
                        <mxPoint x="310" y="580" as="sourcePoint"/>
                        <mxPoint x="360" y="800" as="targetPoint"/>
                        <Array as="points">
                            <mxPoint x="440" y="385"/>
                            <mxPoint x="440" y="800"/>
                        </Array>
                    </mxGeometry>
                </mxCell>
                <mxCell id="ZiXlyBg2tB-xtiRI0G9W-17" value="" style="edgeStyle=none;html=1;fontSize=14;exitX=0;exitY=0.5;exitDx=0;exitDy=0;" edge="1" parent="ZiXlyBg2tB-xtiRI0G9W-1" source="ZiXlyBg2tB-xtiRI0G9W-15" target="ZiXlyBg2tB-xtiRI0G9W-16">
                    <mxGeometry relative="1" as="geometry">
                        <Array as="points">
                            <mxPoint x="130" y="800"/>
                        </Array>
                    </mxGeometry>
                </mxCell>
                <mxCell id="ZiXlyBg2tB-xtiRI0G9W-18" value="Yes" style="edgeLabel;html=1;align=center;verticalAlign=middle;resizable=0;points=[];fontSize=14;" vertex="1" connectable="0" parent="ZiXlyBg2tB-xtiRI0G9W-17">
                    <mxGeometry x="-0.4522" y="1" relative="1" as="geometry">
                        <mxPoint as="offset"/>
                    </mxGeometry>
                </mxCell>
                <mxCell id="ZiXlyBg2tB-xtiRI0G9W-20" value="" style="edgeStyle=none;html=1;fontSize=14;" edge="1" parent="ZiXlyBg2tB-xtiRI0G9W-1" source="ZiXlyBg2tB-xtiRI0G9W-15" target="ZiXlyBg2tB-xtiRI0G9W-19">
                    <mxGeometry relative="1" as="geometry"/>
                </mxCell>
                <mxCell id="DHZD-EjizixZ01exgbx5-1" value="No" style="edgeLabel;html=1;align=center;verticalAlign=middle;resizable=0;points=[];fontSize=14;" vertex="1" connectable="0" parent="ZiXlyBg2tB-xtiRI0G9W-20">
                    <mxGeometry x="-0.2" y="3" relative="1" as="geometry">
                        <mxPoint as="offset"/>
                    </mxGeometry>
                </mxCell>
                <mxCell id="ZiXlyBg2tB-xtiRI0G9W-15" value="a == Number" style="rhombus;whiteSpace=wrap;html=1;fontSize=14;" vertex="1" parent="ZiXlyBg2tB-xtiRI0G9W-1">
                    <mxGeometry x="250" y="760" width="110" height="80" as="geometry"/>
                </mxCell>
                <mxCell id="ZiXlyBg2tB-xtiRI0G9W-16" value="Print &quot; Это полиндром&quot;" style="shape=document;whiteSpace=wrap;html=1;boundedLbl=1;fontSize=14;" vertex="1" parent="ZiXlyBg2tB-xtiRI0G9W-1">
                    <mxGeometry x="70" y="910" width="120" height="80" as="geometry"/>
                </mxCell>
                <mxCell id="ZiXlyBg2tB-xtiRI0G9W-22" value="" style="edgeStyle=none;html=1;fontSize=14;" edge="1" parent="ZiXlyBg2tB-xtiRI0G9W-1" target="ZiXlyBg2tB-xtiRI0G9W-21">
                    <mxGeometry relative="1" as="geometry">
                        <mxPoint x="305" y="970" as="sourcePoint"/>
                    </mxGeometry>
                </mxCell>
                <mxCell id="ZiXlyBg2tB-xtiRI0G9W-19" value="&lt;span&gt;Print &quot; Это не полиндром&quot;&lt;/span&gt;" style="shape=document;whiteSpace=wrap;html=1;boundedLbl=1;fontSize=14;" vertex="1" parent="ZiXlyBg2tB-xtiRI0G9W-1">
                    <mxGeometry x="245" y="910" width="120" height="80" as="geometry"/>
                </mxCell>
                <mxCell id="ZiXlyBg2tB-xtiRI0G9W-21" value="End" style="ellipse;whiteSpace=wrap;html=1;fontSize=14;" vertex="1" parent="ZiXlyBg2tB-xtiRI0G9W-1">
                    <mxGeometry x="245" y="1050" width="120" height="60" as="geometry"/>
                </mxCell>
                <mxCell id="ZiXlyBg2tB-xtiRI0G9W-23" value="" style="endArrow=classic;html=1;fontSize=14;exitX=0.508;exitY=0.875;exitDx=0;exitDy=0;exitPerimeter=0;entryX=0;entryY=0.5;entryDx=0;entryDy=0;" edge="1" parent="ZiXlyBg2tB-xtiRI0G9W-1" source="ZiXlyBg2tB-xtiRI0G9W-16" target="ZiXlyBg2tB-xtiRI0G9W-21">
                    <mxGeometry width="50" height="50" relative="1" as="geometry">
                        <mxPoint x="310" y="980" as="sourcePoint"/>
                        <mxPoint x="360" y="930" as="targetPoint"/>
                        <Array as="points">
                            <mxPoint x="131" y="1080"/>
                        </Array>
                    </mxGeometry>
                </mxCell>
                <mxCell id="DHZD-EjizixZ01exgbx5-0" value="&lt;font style=&quot;font-size: 18px&quot;&gt;&lt;b&gt;&lt;i&gt;Exercise 4&lt;/i&gt;&lt;/b&gt;&lt;/font&gt;" style="text;html=1;strokeColor=none;fillColor=none;align=center;verticalAlign=middle;whiteSpace=wrap;rounded=0;" vertex="1" parent="ZiXlyBg2tB-xtiRI0G9W-1">
                    <mxGeometry x="450" y="10" width="200" height="50" as="geometry"/>
                </mxCell>
            </root>
        </mxGraphModel>
    </diagram>
    <diagram id="NGW30tEs2V9XHFffT23a" name="Exercise 5">
        <mxGraphModel dx="713" dy="471" grid="1" gridSize="10" guides="1" tooltips="1" connect="1" arrows="1" fold="1" page="1" pageScale="1" pageWidth="827" pageHeight="1169" math="0" shadow="0">
            <root>
                <mxCell id="JQr2AhqbCTrdpUYqBUCU-0"/>
                <mxCell id="JQr2AhqbCTrdpUYqBUCU-1" parent="JQr2AhqbCTrdpUYqBUCU-0"/>
                <mxCell id="vsJRijVPcDR0ohSyb_Pj-0" value="" style="edgeStyle=none;html=1;fontSize=14;" edge="1" parent="JQr2AhqbCTrdpUYqBUCU-1" target="vsJRijVPcDR0ohSyb_Pj-2">
                    <mxGeometry relative="1" as="geometry">
                        <mxPoint x="280" y="60" as="sourcePoint"/>
                    </mxGeometry>
                </mxCell>
                <mxCell id="vsJRijVPcDR0ohSyb_Pj-1" value="" style="edgeStyle=none;html=1;fontSize=14;" edge="1" parent="JQr2AhqbCTrdpUYqBUCU-1" source="vsJRijVPcDR0ohSyb_Pj-2" target="vsJRijVPcDR0ohSyb_Pj-4">
                    <mxGeometry relative="1" as="geometry"/>
                </mxCell>
                <mxCell id="vsJRijVPcDR0ohSyb_Pj-2" value="&lt;font style=&quot;font-size: 14px&quot;&gt;Ax, Ay, Az, Bx, By, Bz&lt;/font&gt;" style="shape=parallelogram;perimeter=parallelogramPerimeter;whiteSpace=wrap;html=1;fixedSize=1;fontSize=18;" vertex="1" parent="JQr2AhqbCTrdpUYqBUCU-1">
                    <mxGeometry x="195" y="110" width="170" height="60" as="geometry"/>
                </mxCell>
                <mxCell id="vsJRijVPcDR0ohSyb_Pj-3" value="" style="edgeStyle=none;html=1;fontSize=14;" edge="1" parent="JQr2AhqbCTrdpUYqBUCU-1" source="vsJRijVPcDR0ohSyb_Pj-4" target="vsJRijVPcDR0ohSyb_Pj-6">
                    <mxGeometry relative="1" as="geometry"/>
                </mxCell>
                <mxCell id="vsJRijVPcDR0ohSyb_Pj-4" value="&lt;font style=&quot;font-size: 14px&quot;&gt;D = Sqrt ((Ax - Bx)^2 + &lt;br&gt;(Ay - By)^2 + (Az - Bz)^2)&amp;nbsp;&lt;/font&gt;" style="whiteSpace=wrap;html=1;fontSize=18;" vertex="1" parent="JQr2AhqbCTrdpUYqBUCU-1">
                    <mxGeometry x="177.5" y="210" width="205" height="100" as="geometry"/>
                </mxCell>
                <mxCell id="vsJRijVPcDR0ohSyb_Pj-5" value="" style="edgeStyle=none;html=1;fontSize=14;exitX=0.502;exitY=0.834;exitDx=0;exitDy=0;exitPerimeter=0;" edge="1" parent="JQr2AhqbCTrdpUYqBUCU-1" source="vsJRijVPcDR0ohSyb_Pj-6" target="vsJRijVPcDR0ohSyb_Pj-7">
                    <mxGeometry relative="1" as="geometry"/>
                </mxCell>
                <mxCell id="vsJRijVPcDR0ohSyb_Pj-6" value="Print D" style="shape=document;whiteSpace=wrap;html=1;boundedLbl=1;fontSize=18;" vertex="1" parent="JQr2AhqbCTrdpUYqBUCU-1">
                    <mxGeometry x="220" y="370" width="120" height="80" as="geometry"/>
                </mxCell>
                <mxCell id="vsJRijVPcDR0ohSyb_Pj-7" value="End" style="ellipse;whiteSpace=wrap;html=1;fontSize=18;" vertex="1" parent="JQr2AhqbCTrdpUYqBUCU-1">
                    <mxGeometry x="220" y="510" width="120" height="60" as="geometry"/>
                </mxCell>
                <mxCell id="vsJRijVPcDR0ohSyb_Pj-8" value="Start" style="ellipse;whiteSpace=wrap;html=1;fontSize=14;" vertex="1" parent="JQr2AhqbCTrdpUYqBUCU-1">
                    <mxGeometry x="220" y="10" width="120" height="50" as="geometry"/>
                </mxCell>
                <mxCell id="N9vvhO6PcqyInPg-NI9b-0" value="&lt;font style=&quot;font-size: 18px&quot;&gt;&lt;b&gt;&lt;i&gt;Exercise 5&lt;/i&gt;&lt;/b&gt;&lt;/font&gt;" style="text;html=1;strokeColor=none;fillColor=none;align=center;verticalAlign=middle;whiteSpace=wrap;rounded=0;" vertex="1" parent="JQr2AhqbCTrdpUYqBUCU-1">
                    <mxGeometry x="414" y="10" width="200" height="50" as="geometry"/>
                </mxCell>
            </root>
        </mxGraphModel>
    </diagram>
    <diagram id="bhc_YhnIJfqLFyG5bmZm" name="Exercise 6">
        <mxGraphModel dx="642" dy="424" grid="1" gridSize="10" guides="1" tooltips="1" connect="1" arrows="1" fold="1" page="1" pageScale="1" pageWidth="827" pageHeight="1169" math="0" shadow="0">
            <root>
                <mxCell id="4p_QkZVU7q7mHWcIrn9a-0"/>
                <mxCell id="4p_QkZVU7q7mHWcIrn9a-1" parent="4p_QkZVU7q7mHWcIrn9a-0"/>
                <mxCell id="4p_QkZVU7q7mHWcIrn9a-2" value="" style="edgeStyle=none;html=1;fontSize=14;" edge="1" parent="4p_QkZVU7q7mHWcIrn9a-1" source="4p_QkZVU7q7mHWcIrn9a-3" target="4p_QkZVU7q7mHWcIrn9a-5">
                    <mxGeometry relative="1" as="geometry"/>
                </mxCell>
                <mxCell id="4p_QkZVU7q7mHWcIrn9a-3" value="Start" style="ellipse;whiteSpace=wrap;html=1;fontSize=14;" vertex="1" parent="4p_QkZVU7q7mHWcIrn9a-1">
                    <mxGeometry x="250" y="20" width="120" height="50" as="geometry"/>
                </mxCell>
                <mxCell id="4p_QkZVU7q7mHWcIrn9a-4" value="" style="edgeStyle=none;html=1;fontSize=14;" edge="1" parent="4p_QkZVU7q7mHWcIrn9a-1" source="4p_QkZVU7q7mHWcIrn9a-5" target="4p_QkZVU7q7mHWcIrn9a-7">
                    <mxGeometry relative="1" as="geometry"/>
                </mxCell>
                <mxCell id="4p_QkZVU7q7mHWcIrn9a-5" value="N" style="shape=parallelogram;perimeter=parallelogramPerimeter;whiteSpace=wrap;html=1;fixedSize=1;fontSize=14;" vertex="1" parent="4p_QkZVU7q7mHWcIrn9a-1">
                    <mxGeometry x="250" y="110" width="120" height="60" as="geometry"/>
                </mxCell>
                <mxCell id="4p_QkZVU7q7mHWcIrn9a-6" value="" style="edgeStyle=none;html=1;fontSize=14;" edge="1" parent="4p_QkZVU7q7mHWcIrn9a-1" source="4p_QkZVU7q7mHWcIrn9a-7" target="4p_QkZVU7q7mHWcIrn9a-10">
                    <mxGeometry relative="1" as="geometry"/>
                </mxCell>
                <mxCell id="4p_QkZVU7q7mHWcIrn9a-7" value="count&amp;nbsp; = 0&lt;br&gt;i = 0" style="whiteSpace=wrap;html=1;fontSize=14;" vertex="1" parent="4p_QkZVU7q7mHWcIrn9a-1">
                    <mxGeometry x="250" y="200" width="120" height="60" as="geometry"/>
                </mxCell>
                <mxCell id="4p_QkZVU7q7mHWcIrn9a-8" value="" style="edgeStyle=none;html=1;fontSize=14;" edge="1" parent="4p_QkZVU7q7mHWcIrn9a-1" source="4p_QkZVU7q7mHWcIrn9a-10" target="4p_QkZVU7q7mHWcIrn9a-12">
                    <mxGeometry relative="1" as="geometry"/>
                </mxCell>
                <mxCell id="4p_QkZVU7q7mHWcIrn9a-9" value="" style="edgeStyle=none;html=1;fontSize=14;" edge="1" parent="4p_QkZVU7q7mHWcIrn9a-1" source="4p_QkZVU7q7mHWcIrn9a-10" target="4p_QkZVU7q7mHWcIrn9a-15">
                    <mxGeometry relative="1" as="geometry">
                        <Array as="points">
                            <mxPoint x="430" y="340"/>
                            <mxPoint x="430" y="740"/>
                        </Array>
                    </mxGeometry>
                </mxCell>
                <mxCell id="4p_QkZVU7q7mHWcIrn9a-10" value="i &amp;lt; N" style="rhombus;whiteSpace=wrap;html=1;fontSize=14;" vertex="1" parent="4p_QkZVU7q7mHWcIrn9a-1">
                    <mxGeometry x="270" y="300" width="80" height="80" as="geometry"/>
                </mxCell>
                <mxCell id="4p_QkZVU7q7mHWcIrn9a-11" value="" style="edgeStyle=none;html=1;fontSize=14;" edge="1" parent="4p_QkZVU7q7mHWcIrn9a-1" source="4p_QkZVU7q7mHWcIrn9a-12" target="4p_QkZVU7q7mHWcIrn9a-13">
                    <mxGeometry relative="1" as="geometry"/>
                </mxCell>
                <mxCell id="4p_QkZVU7q7mHWcIrn9a-12" value="i = i + 1&lt;br&gt;count = i^3" style="whiteSpace=wrap;html=1;fontSize=14;" vertex="1" parent="4p_QkZVU7q7mHWcIrn9a-1">
                    <mxGeometry x="250" y="420" width="120" height="60" as="geometry"/>
                </mxCell>
                <mxCell id="4p_QkZVU7q7mHWcIrn9a-13" value="Count" style="shape=document;whiteSpace=wrap;html=1;boundedLbl=1;fontSize=14;" vertex="1" parent="4p_QkZVU7q7mHWcIrn9a-1">
                    <mxGeometry x="250" y="520" width="120" height="80" as="geometry"/>
                </mxCell>
                <mxCell id="4p_QkZVU7q7mHWcIrn9a-14" value="" style="endArrow=classic;html=1;fontSize=14;exitX=0.508;exitY=0.875;exitDx=0;exitDy=0;exitPerimeter=0;entryX=0;entryY=0.5;entryDx=0;entryDy=0;" edge="1" parent="4p_QkZVU7q7mHWcIrn9a-1" source="4p_QkZVU7q7mHWcIrn9a-13" target="4p_QkZVU7q7mHWcIrn9a-10">
                    <mxGeometry width="50" height="50" relative="1" as="geometry">
                        <mxPoint x="320" y="660" as="sourcePoint"/>
                        <mxPoint x="240" y="330" as="targetPoint"/>
                        <Array as="points">
                            <mxPoint x="311" y="630"/>
                            <mxPoint x="140" y="630"/>
                            <mxPoint x="140" y="340"/>
                        </Array>
                    </mxGeometry>
                </mxCell>
                <mxCell id="4p_QkZVU7q7mHWcIrn9a-15" value="End" style="ellipse;whiteSpace=wrap;html=1;fontSize=14;" vertex="1" parent="4p_QkZVU7q7mHWcIrn9a-1">
                    <mxGeometry x="250" y="710" width="120" height="60" as="geometry"/>
                </mxCell>
                <mxCell id="o9MZvhiSe7-vPkl0WcHo-0" value="&lt;font style=&quot;font-size: 18px&quot;&gt;&lt;b&gt;&lt;i&gt;Exercise 6&lt;/i&gt;&lt;/b&gt;&lt;/font&gt;" style="text;html=1;strokeColor=none;fillColor=none;align=center;verticalAlign=middle;whiteSpace=wrap;rounded=0;" vertex="1" parent="4p_QkZVU7q7mHWcIrn9a-1">
                    <mxGeometry x="414" y="10" width="200" height="50" as="geometry"/>
                </mxCell>
            </root>
        </mxGraphModel>
    </diagram>
</mxfile>